<svg width="254" height="254" viewBox="0 0 254 254" fill="none" xmlns="http://www.w3.org/2000/svg">
<path d="M216 44V53.089C216 54.2076 209.954 65.9068 206.93 71.6165L197.86 82.4534L193.326 80.3559L185.302 84.2013L186.698 86.9979L190.186 88.3962H192.279L193.326 90.1441L188.791 91.1928L184.605 89.4449L180.419 85.5996H178.674L192.279 76.161L197.86 77.5593L202.744 70.5678L208.326 62.5275L211.465 56.5847L213.907 48.8941L214.953 44H216Z" fill="url(#paint0_linear_1408_218)"/>
<path d="M177.628 86.6483H176.233L174.837 88.7458L173.093 91.892L172.395 95.3877L171.698 103.078L171.349 104.127L163.326 103.428L160.535 105.875L159.488 108.322L159.14 112.167L157.047 114.614L154.605 114.964H152.86L150.767 117.761L149.372 119.858H146.93L144.14 118.46H143.093L139.953 121.256L135.07 127.549L132.279 129.297L130.186 129.646L126.349 128.597L121.465 124.053L115.535 119.159L110.651 116.712L106.465 115.314L102.977 114.964L99.8372 115.663L94.6047 118.11L91.814 120.557L89.3721 125.801L87.2791 131.394L86.9302 136.987L87.2791 147.475L87.9767 155.515L89.3721 161.108L92.1628 168.1L97.3953 178.587L101.233 185.229L107.86 192.919L111.698 197.114L116.581 201.309L120.767 204.106L123.558 205.155L124.256 203.756L123.558 202.008L115.186 196.066L109.256 189.074L102.279 178.587L97.3953 169.148L93.907 159.011L92.5116 150.621V141.881L93.2093 135.589L94.6047 129.297L97.7442 122.655L100.884 120.208L103.674 119.159L107.86 119.508L111.698 121.256L115.186 124.403L118.674 128.597V129.996L116.233 134.191L113.791 141.532L113.093 146.775L113.791 152.718L116.581 156.913L119.721 160.409L121.465 165.303V173.693L123.209 180.684L126.349 183.131L131.581 186.977L138.907 190.822L142.047 192.22L145.884 192.919H150.767L149.372 197.464L149.023 204.106L149.372 207.602L150.767 209L152.512 207.252L151.814 202.008C151.93 200.494 152.233 197.394 152.512 197.114C152.791 196.835 154.023 194.434 154.605 193.269L159.14 187.676L164.721 183.131L169.605 177.538L171.698 173.693L173.442 170.547L174.14 168.1L173.791 166.701L172.744 169.148L168.907 173.693L162.628 179.636L154.953 185.578L148.326 188.375H142.744L137.512 186.977L134.023 184.53L129.837 181.034L126.349 175.79L125.651 172.994L125.302 167.75V165.653L127.047 165.303L129.837 163.206L131.581 161.108L132.279 160.059L131.581 158.311L129.837 158.661L128.442 160.409L126 161.108L123.907 160.758L120.419 156.214L119.023 152.369V145.028L120.419 139.784L121.465 135.239L122.512 132.093L124.953 134.191L129.14 135.239L133.674 134.191L137.163 131.394L139.953 127.549L142.395 123.703L143.093 122.655L146.93 124.403L150.419 124.053L152.163 122.305L154.605 120.557L154.953 119.159L158.791 118.809L160.186 116.712L162.279 115.663V113.216L167.512 114.964L173.442 119.858L176.233 125.451L177.977 130.345L179.023 138.036V140.133L176.233 141.881L173.791 143.28V144.678L175.186 145.377L176.93 144.328L178.326 143.28L179.721 143.629L181.116 145.028L181.814 147.125L181.116 152.369L180.767 154.466L180.07 156.564L179.023 160.059L177.279 162.856L175.884 164.254L174.488 162.506L173.791 162.157L172.744 162.856V164.953L173.791 166.002L174.837 167.051L177.628 166.701L181.814 168.449L188.442 172.644L192.279 175.79L198.558 182.083L202.744 188.025L205.186 192.57L211.116 203.057L212.86 203.407C212.977 203.057 213.209 202.288 213.209 202.008C213.209 201.729 212.744 200.494 212.512 199.911L207.977 188.725L201 177.538L195.07 171.595L188.442 166.002L182.86 162.506L181.814 161.807L183.558 158.661L185.302 154.466L186.349 148.873C186.465 147.941 186.628 146.006 186.349 145.727C186.07 145.447 185.07 143.28 184.605 142.231L184.256 139.434V133.142L182.86 126.85L179.372 119.858L174.488 114.964L169.256 112.167L166.814 111.119L164.372 110.07H162.977L163.674 109.021L164.721 108.672L166.814 109.72L168.907 110.419L172.047 109.72L174.488 107.623L175.535 106.225V93.9894L176.581 90.8432L177.279 89.4449L177.628 88.3962V86.6483Z" fill="url(#paint1_linear_1408_218)"/>
<path d="M208.326 46.0975L204.14 50.6419L197.86 59.0318L192.279 64.625L186.698 67.7712L180.419 69.5191L174.488 70.5678H171C170.767 70.9174 170.442 71.6165 171 71.6165C171.558 71.6165 174.256 72.5487 175.535 73.0148H182.512L188.791 71.6165L194.372 67.7712L199.605 63.2267L202.744 58.3326L206.93 52.0403L208.326 48.1949V46.0975Z" fill="url(#paint2_linear_1408_218)"/>
<path d="M188.093 48.8941L186.349 49.5932L181.465 54.4873L176.581 57.6335L168.209 62.5275L161.581 63.2267L153.558 62.5275L143.093 59.0318L134.023 55.1864L128.791 53.4386L123.907 52.3898H117.977L115.884 54.1377L117.977 55.1864H122.163H126.349L131.233 57.2839L136.465 59.7309L142.047 62.5275L145.535 64.9746L149.372 67.072L154.605 67.7712H161.581L166.116 67.072L171 64.9746L175.535 62.5275L180.419 59.7309L183.907 56.2352L187.744 52.3898L188.791 50.6419L188.093 48.8941Z" fill="url(#paint3_linear_1408_218)"/>
<path d="M129.488 64.625L127.395 64.2754L124.953 66.3729L121.116 68.1208L115.535 67.7712L106.814 64.2754L98.4419 59.7309L91.4651 56.2352L83.7907 53.089L76.4651 50.9915L70.8837 50.2924L63.5581 51.6907L52.7442 55.1864L44.3721 60.4301L38.093 66.0233L34.6047 69.5191V71.2669H36.6977L40.186 67.4216L48.5581 61.4788L54.8372 57.9831L63.5581 54.8369H68.4419C68.7209 54.8369 73.907 55.0699 76.4651 55.1864L81.6977 56.9343L94.9535 64.2754L101.233 68.1208L109.953 72.3157L115.186 73.714L119.721 73.0148L124.256 70.9174C124.953 70.4513 126.349 69.4492 126.349 69.1695C126.349 68.8898 127.977 67.1886 128.791 66.3729L129.488 64.625Z" fill="url(#paint4_linear_1408_218)"/>
<path d="M105.767 76.161V74.0636L99.4884 70.9174L93.2093 67.7712L87.6279 65.6737L83.093 64.2754L78.5581 63.9258L72.9767 65.6737L68.4419 66.7225L62.1628 70.9174L59.3721 74.4131V76.161H60.7674L63.5581 74.0636L66.3488 71.6165L73.3256 69.5191L78.907 68.8199L88.3256 69.5191L93.5581 71.6165L99.1395 74.0636L103.674 76.161H105.419H105.767Z" fill="url(#paint5_linear_1408_218)"/>
<path d="M135.07 67.072L133.326 67.7712L131.233 70.9174L127.395 76.8602L121.465 82.4534L114.14 85.25L108.558 86.6483L102.628 87.697L92.5116 88.7458L83.4419 89.0953L75.4186 89.7945L67.7442 91.1928L60.4186 93.6398L53.093 96.0869L47.1628 99.9322L41.9302 103.778L37.0465 109.371L33.907 113.915L29.0233 123.354L25.8837 128.947L23.4419 135.939L21.6977 144.328L21 149.922V153.068L22.0465 153.767L23.4419 152.369L24.4884 146.426L26.9302 135.239L30.0698 127.898L33.5581 121.956L38.093 114.265L47.1628 106.574L54.4884 101.68L65.6512 96.786L76.814 94.339L89.7209 93.6398L97.0465 93.2903L106.814 91.5424C109.256 90.8432 114.279 89.375 114.837 89.0953C115.395 88.8157 119.488 87.1144 121.465 86.2987L127.395 81.4047L129.488 78.2585L133.674 72.3157L134.721 69.1695L135.07 67.072Z" fill="url(#paint6_linear_1408_218)"/>
<path d="M150.767 152.019L148.674 154.466L146.233 155.864H143.442H140.302L140.651 157.263L142.744 159.36L144.837 160.059L147.628 158.661L150.07 156.214L151.116 154.466V152.718V152.019H150.767Z" fill="url(#paint7_linear_1408_218)"/>
<path d="M149.023 171.945L147.279 172.294L146.233 173.693L145.186 174.392L142.744 174.742L141 175.091L140.651 176.14H138.558H136.465L135.767 177.189L135.07 177.888L136.465 179.636L137.86 181.034L138.558 182.083L140.302 182.782H142.395L144.837 181.733L146.93 179.636L147.977 177.888L148.326 176.839H145.884L145.186 178.587L143.442 179.636L141 179.985L139.605 179.636L139.256 179.286V178.936L141.698 178.587L143.093 177.888L144.837 176.839L146.233 176.14L147.628 175.441L148.326 174.742L149.023 173.693V171.945Z" fill="url(#paint8_linear_1408_218)"/>
<path d="M141.349 167.051L141 165.653L139.605 164.953L138.558 165.653L137.163 167.051V168.1L136.465 167.75L135.419 166.701L134.372 167.051L132.977 168.1L132.628 169.148L133.674 169.847L135.07 170.197L136.116 169.498L136.814 168.799L137.163 168.449L138.558 168.799H139.605L140.651 168.1L141.349 167.75V167.051Z" fill="url(#paint9_linear_1408_218)"/>
<path fill-rule="evenodd" clip-rule="evenodd" d="M254 127C254 197.14 197.14 254 127 254C56.8598 254 0 197.14 0 127C0 56.8598 56.8598 0 127 0C197.14 0 254 56.8598 254 127ZM127 249.68C193.323 249.68 249.248 193.323 249.248 127C249.248 60.677 193.323 3.45578 127 3.45578C60.677 3.45578 4.7517 60.677 4.7517 127C4.7517 193.323 60.677 249.68 127 249.68Z" fill="url(#paint10_linear_1408_218)"/>
<defs>
<linearGradient id="paint0_linear_1408_218" x1="39.2472" y1="103.297" x2="193.277" y2="106.906" gradientUnits="userSpaceOnUse">
<stop stop-color="#FCA785"/>
<stop offset="0.536458" stop-color="#FB8077"/>
<stop offset="1" stop-color="#FA5165"/>
</linearGradient>
<linearGradient id="paint1_linear_1408_218" x1="39.2472" y1="103.297" x2="193.277" y2="106.906" gradientUnits="userSpaceOnUse">
<stop stop-color="#FCA785"/>
<stop offset="0.536458" stop-color="#FB8077"/>
<stop offset="1" stop-color="#FA5165"/>
</linearGradient>
<linearGradient id="paint2_linear_1408_218" x1="39.2472" y1="103.297" x2="193.277" y2="106.906" gradientUnits="userSpaceOnUse">
<stop stop-color="#FCA785"/>
<stop offset="0.536458" stop-color="#FB8077"/>
<stop offset="1" stop-color="#FA5165"/>
</linearGradient>
<linearGradient id="paint3_linear_1408_218" x1="39.2472" y1="103.297" x2="193.277" y2="106.906" gradientUnits="userSpaceOnUse">
<stop stop-color="#FCA785"/>
<stop offset="0.536458" stop-color="#FB8077"/>
<stop offset="1" stop-color="#FA5165"/>
</linearGradient>
<linearGradient id="paint4_linear_1408_218" x1="39.2472" y1="103.297" x2="193.277" y2="106.906" gradientUnits="userSpaceOnUse">
<stop stop-color="#FCA785"/>
<stop offset="0.536458" stop-color="#FB8077"/>
<stop offset="1" stop-color="#FA5165"/>
</linearGradient>
<linearGradient id="paint5_linear_1408_218" x1="39.2472" y1="103.297" x2="193.277" y2="106.906" gradientUnits="userSpaceOnUse">
<stop stop-color="#FCA785"/>
<stop offset="0.536458" stop-color="#FB8077"/>
<stop offset="1" stop-color="#FA5165"/>
</linearGradient>
<linearGradient id="paint6_linear_1408_218" x1="39.2472" y1="103.297" x2="193.277" y2="106.906" gradientUnits="userSpaceOnUse">
<stop stop-color="#FCA785"/>
<stop offset="0.536458" stop-color="#FB8077"/>
<stop offset="1" stop-color="#FA5165"/>
</linearGradient>
<linearGradient id="paint7_linear_1408_218" x1="39.2472" y1="103.297" x2="193.277" y2="106.906" gradientUnits="userSpaceOnUse">
<stop stop-color="#FCA785"/>
<stop offset="0.536458" stop-color="#FB8077"/>
<stop offset="1" stop-color="#FA5165"/>
</linearGradient>
<linearGradient id="paint8_linear_1408_218" x1="39.2472" y1="103.297" x2="193.277" y2="106.906" gradientUnits="userSpaceOnUse">
<stop stop-color="#FCA785"/>
<stop offset="0.536458" stop-color="#FB8077"/>
<stop offset="1" stop-color="#FA5165"/>
</linearGradient>
<linearGradient id="paint9_linear_1408_218" x1="39.2472" y1="103.297" x2="193.277" y2="106.906" gradientUnits="userSpaceOnUse">
<stop stop-color="#FCA785"/>
<stop offset="0.536458" stop-color="#FB8077"/>
<stop offset="1" stop-color="#FA5165"/>
</linearGradient>
<linearGradient id="paint10_linear_1408_218" x1="23.7682" y1="91.2812" x2="224.433" y2="95.26" gradientUnits="userSpaceOnUse">
<stop stop-color="#FCA785"/>
<stop offset="0.536458" stop-color="#FB8077"/>
<stop offset="1" stop-color="#FA5165"/>
</linearGradient>
</defs>
</svg>
